<mxfile host="www.draw.io" modified="2019-11-16T13:02:57.141Z" agent="Mozilla/5.0 (Macintosh; Intel Mac OS X 10_14_6) AppleWebKit/537.36 (KHTML, like Gecko) Chrome/78.0.3904.97 Safari/537.36" etag="hgK_8lhDOes1GX9AnaOI" version="12.2.6" type="github" pages="1">
  <diagram id="uqvHFV8nQAG5Nv7VTPJz" name="Page-1">
    <mxGraphModel dx="974" dy="482" grid="1" gridSize="10" guides="1" tooltips="1" connect="1" arrows="1" fold="1" page="1" pageScale="1" pageWidth="827" pageHeight="1169" math="0" shadow="0">
      <root>
        <mxCell id="0"/>
        <mxCell id="1" parent="0"/>
        <mxCell id="J41uyWiFovu2kS6MXUoa-7" style="edgeStyle=orthogonalEdgeStyle;rounded=0;orthogonalLoop=1;jettySize=auto;html=1;exitX=1;exitY=0.25;exitDx=0;exitDy=0;entryX=0;entryY=0.25;entryDx=0;entryDy=0;strokeWidth=2;fillColor=#fad9d5;strokeColor=#ae4132;" edge="1" parent="1" source="J41uyWiFovu2kS6MXUoa-1" target="J41uyWiFovu2kS6MXUoa-2">
          <mxGeometry relative="1" as="geometry"/>
        </mxCell>
        <mxCell id="J41uyWiFovu2kS6MXUoa-1" value="&lt;font style=&quot;font-size: 16px&quot;&gt;节点1&lt;/font&gt;" style="rounded=0;whiteSpace=wrap;html=1;fillColor=#dae8fc;strokeColor=#6c8ebf;" vertex="1" parent="1">
          <mxGeometry x="40" y="225" width="70" height="30" as="geometry"/>
        </mxCell>
        <mxCell id="J41uyWiFovu2kS6MXUoa-8" style="edgeStyle=orthogonalEdgeStyle;rounded=0;orthogonalLoop=1;jettySize=auto;html=1;exitX=0;exitY=0.75;exitDx=0;exitDy=0;entryX=1;entryY=0.75;entryDx=0;entryDy=0;strokeWidth=2;fillColor=#fad9d5;strokeColor=#ae4132;" edge="1" parent="1" source="J41uyWiFovu2kS6MXUoa-2" target="J41uyWiFovu2kS6MXUoa-1">
          <mxGeometry relative="1" as="geometry"/>
        </mxCell>
        <mxCell id="J41uyWiFovu2kS6MXUoa-12" style="edgeStyle=orthogonalEdgeStyle;rounded=0;orthogonalLoop=1;jettySize=auto;html=1;exitX=1;exitY=0.25;exitDx=0;exitDy=0;entryX=0;entryY=0.25;entryDx=0;entryDy=0;strokeWidth=2;fillColor=#fad9d5;strokeColor=#ae4132;" edge="1" parent="1" source="J41uyWiFovu2kS6MXUoa-2" target="J41uyWiFovu2kS6MXUoa-3">
          <mxGeometry relative="1" as="geometry"/>
        </mxCell>
        <mxCell id="J41uyWiFovu2kS6MXUoa-2" value="&lt;font style=&quot;font-size: 16px&quot;&gt;节点2&lt;/font&gt;" style="rounded=0;whiteSpace=wrap;html=1;fillColor=#dae8fc;strokeColor=#6c8ebf;" vertex="1" parent="1">
          <mxGeometry x="180" y="225" width="70" height="30" as="geometry"/>
        </mxCell>
        <mxCell id="J41uyWiFovu2kS6MXUoa-13" style="edgeStyle=orthogonalEdgeStyle;rounded=0;orthogonalLoop=1;jettySize=auto;html=1;exitX=0;exitY=0.75;exitDx=0;exitDy=0;entryX=1;entryY=0.75;entryDx=0;entryDy=0;strokeWidth=2;fillColor=#fad9d5;strokeColor=#ae4132;" edge="1" parent="1" source="J41uyWiFovu2kS6MXUoa-3" target="J41uyWiFovu2kS6MXUoa-2">
          <mxGeometry relative="1" as="geometry"/>
        </mxCell>
        <mxCell id="J41uyWiFovu2kS6MXUoa-14" style="edgeStyle=orthogonalEdgeStyle;rounded=0;orthogonalLoop=1;jettySize=auto;html=1;exitX=1;exitY=0.25;exitDx=0;exitDy=0;entryX=0;entryY=0.25;entryDx=0;entryDy=0;strokeWidth=2;fillColor=#fad9d5;strokeColor=#ae4132;" edge="1" parent="1" source="J41uyWiFovu2kS6MXUoa-3" target="J41uyWiFovu2kS6MXUoa-5">
          <mxGeometry relative="1" as="geometry"/>
        </mxCell>
        <mxCell id="J41uyWiFovu2kS6MXUoa-3" value="&lt;font style=&quot;font-size: 16px&quot;&gt;节点3&lt;/font&gt;" style="rounded=0;whiteSpace=wrap;html=1;fillColor=#dae8fc;strokeColor=#6c8ebf;" vertex="1" parent="1">
          <mxGeometry x="320" y="225" width="70" height="30" as="geometry"/>
        </mxCell>
        <mxCell id="J41uyWiFovu2kS6MXUoa-17" style="edgeStyle=orthogonalEdgeStyle;rounded=0;orthogonalLoop=1;jettySize=auto;html=1;exitX=0;exitY=0.75;exitDx=0;exitDy=0;entryX=1;entryY=0.75;entryDx=0;entryDy=0;strokeWidth=2;fillColor=#fad9d5;strokeColor=#ae4132;" edge="1" parent="1" source="J41uyWiFovu2kS6MXUoa-4" target="J41uyWiFovu2kS6MXUoa-5">
          <mxGeometry relative="1" as="geometry"/>
        </mxCell>
        <mxCell id="J41uyWiFovu2kS6MXUoa-4" value="&lt;font style=&quot;font-size: 16px&quot;&gt;节点5&lt;/font&gt;" style="rounded=0;whiteSpace=wrap;html=1;fillColor=#dae8fc;strokeColor=#6c8ebf;" vertex="1" parent="1">
          <mxGeometry x="600" y="225" width="70" height="30" as="geometry"/>
        </mxCell>
        <mxCell id="J41uyWiFovu2kS6MXUoa-15" style="edgeStyle=orthogonalEdgeStyle;rounded=0;orthogonalLoop=1;jettySize=auto;html=1;exitX=0;exitY=0.75;exitDx=0;exitDy=0;entryX=1;entryY=0.75;entryDx=0;entryDy=0;strokeWidth=2;fillColor=#fad9d5;strokeColor=#ae4132;" edge="1" parent="1" source="J41uyWiFovu2kS6MXUoa-5" target="J41uyWiFovu2kS6MXUoa-3">
          <mxGeometry relative="1" as="geometry"/>
        </mxCell>
        <mxCell id="J41uyWiFovu2kS6MXUoa-16" style="edgeStyle=orthogonalEdgeStyle;rounded=0;orthogonalLoop=1;jettySize=auto;html=1;exitX=1;exitY=0.25;exitDx=0;exitDy=0;entryX=0;entryY=0.25;entryDx=0;entryDy=0;strokeWidth=2;fillColor=#fad9d5;strokeColor=#ae4132;" edge="1" parent="1" source="J41uyWiFovu2kS6MXUoa-5" target="J41uyWiFovu2kS6MXUoa-4">
          <mxGeometry relative="1" as="geometry"/>
        </mxCell>
        <mxCell id="J41uyWiFovu2kS6MXUoa-5" value="&lt;font style=&quot;font-size: 16px&quot;&gt;节点4&lt;/font&gt;" style="rounded=0;whiteSpace=wrap;html=1;fillColor=#dae8fc;strokeColor=#6c8ebf;" vertex="1" parent="1">
          <mxGeometry x="460" y="225" width="70" height="30" as="geometry"/>
        </mxCell>
      </root>
    </mxGraphModel>
  </diagram>
</mxfile>
